<svg width="24" height="24" viewBox="0 0 24 24" fill="none" xmlns="http://www.w3.org/2000/svg">
<path d="M23.71 5.29L18.71 0.29C18.6166 0.197319 18.5057 0.123993 18.3839 0.0742288C18.2621 0.0244642 18.1316 -0.000760868 18 2.49911e-08H2C1.46957 2.49911e-08 0.960859 0.210714 0.585786 0.585786C0.210714 0.960859 0 1.46957 0 2V22C0 22.5304 0.210714 23.0391 0.585786 23.4142C0.960859 23.7893 1.46957 24 2 24H22C22.5304 24 23.0391 23.7893 23.4142 23.4142C23.7893 23.0391 24 22.5304 24 22V6C24.0008 5.86839 23.9755 5.73793 23.9258 5.61609C23.876 5.49426 23.8027 5.38344 23.71 5.29ZM8 2H16V6H8V2ZM16 22H8V14H16V22ZM18 22V14C18 13.4696 17.7893 12.9609 17.4142 12.5858C17.0391 12.2107 16.5304 12 16 12H8C7.46957 12 6.96086 12.2107 6.58579 12.5858C6.21071 12.9609 6 13.4696 6 14V22H2V2H6V6C6 6.53043 6.21071 7.03914 6.58579 7.41421C6.96086 7.78929 7.46957 8 8 8H16C16.5304 8 17.0391 7.78929 17.4142 7.41421C17.7893 7.03914 18 6.53043 18 6V2.41L22 6.41V22H18Z" fill="black"/>
</svg>
