<svg width="15" height="15" viewBox="0 0 15 15" fill="none" xmlns="http://www.w3.org/2000/svg">
<g clip-path="url(#clip0_26_2)">
<path d="M0 1.5C0 1.10218 0.158035 0.720644 0.43934 0.43934C0.720644 0.158035 1.10218 0 1.5 0L10.086 0C10.4837 0.000350104 10.865 0.158615 11.146 0.44L14.561 3.854C14.842 4.1352 14.9999 4.51645 15 4.914V13.5C15 13.8978 14.842 14.2794 14.5607 14.5607C14.2794 14.842 13.8978 15 13.5 15H11V11.5C11 11.1022 10.842 10.7206 10.5607 10.4393C10.2794 10.158 9.89782 10 9.5 10H5.5C5.10218 10 4.72064 10.158 4.43934 10.4393C4.15804 10.7206 4 11.1022 4 11.5V15H1.5C1.10218 15 0.720644 14.842 0.43934 14.5607C0.158035 14.2794 0 13.8978 0 13.5L0 1.5Z" fill="#F8F8F8"/>
<path d="M5 15H10V11.5C10 11.3674 9.94732 11.2402 9.85355 11.1464C9.75979 11.0527 9.63261 11 9.5 11H5.5C5.36739 11 5.24021 11.0527 5.14645 11.1464C5.05268 11.2402 5 11.3674 5 11.5V15Z" fill="#F8F8F8"/>
</g>
<defs>
<clipPath id="clip0_26_2">
<rect width="15" height="15" fill="white"/>
</clipPath>
</defs>
</svg>
