<svg width="16" height="20" viewBox="0 0 16 20" fill="none" xmlns="http://www.w3.org/2000/svg">
<path d="M7 12.825V16C7 16.2833 7.096 16.521 7.288 16.713C7.48 16.905 7.71733 17.0007 8 17C8.28267 16.9993 8.52033 16.9033 8.713 16.712C8.90567 16.5207 9.00133 16.2833 9 16V12.825L9.9 13.725C10 13.825 10.1127 13.9 10.238 13.95C10.3633 14 10.4883 14.021 10.613 14.013C10.7377 14.005 10.8583 13.9757 10.975 13.925C11.0917 13.8743 11.2 13.7993 11.3 13.7C11.4833 13.5 11.5793 13.2667 11.588 13C11.5967 12.7333 11.5007 12.5 11.3 12.3L8.7 9.7C8.6 9.6 8.49167 9.52933 8.375 9.488C8.25833 9.44667 8.13333 9.42567 8 9.425C7.86667 9.42433 7.74167 9.44533 7.625 9.488C7.50833 9.53067 7.4 9.60133 7.3 9.7L4.7 12.3C4.5 12.5 4.40433 12.7333 4.413 13C4.42167 13.2667 4.52567 13.5 4.725 13.7C4.925 13.8833 5.15833 13.9793 5.425 13.988C5.69167 13.9967 5.925 13.9007 6.125 13.7L7 12.825ZM2 20C1.45 20 0.979333 19.8043 0.588 19.413C0.196666 19.0217 0.000666667 18.5507 0 18V2C0 1.45 0.196 0.979333 0.588 0.588C0.98 0.196667 1.45067 0.000666667 2 0H9.175C9.44167 0 9.696 0.0500001 9.938 0.15C10.18 0.25 10.3923 0.391667 10.575 0.575L15.425 5.425C15.6083 5.60833 15.75 5.821 15.85 6.063C15.95 6.305 16 6.559 16 6.825V18C16 18.55 15.8043 19.021 15.413 19.413C15.0217 19.805 14.5507 20.0007 14 20H2ZM9 6C9 6.28333 9.096 6.521 9.288 6.713C9.48 6.905 9.71733 7.00067 10 7H14L9 2V6Z" fill="#F8F8F8"/>
</svg>
